Coordinates
version=1
nRows=5
nColumns=40
inDegrees=yes
endheader
time	pelvis_tilt	pelvis_list	pelvis_rotation	pelvis_tx	pelvis_ty	pelvis_tz	hip_flexion_r	hip_adduction_r	hip_rotation_r	knee_angle_r	knee_angle_r_beta	ankle_angle_r	subtalar_angle_r	mtp_angle_r	hip_flexion_l	hip_adduction_l	hip_rotation_l	knee_angle_l	knee_angle_l_beta	ankle_angle_l	subtalar_angle_l	mtp_angle_l	lumbar_extension	lumbar_bending	lumbar_rotation	arm_flex_r	arm_add_r	arm_rot_r	elbow_flex_r	pro_sup_r	wrist_flex_r	wrist_dev_r	arm_flex_l	arm_add_l	arm_rot_l	elbow_flex_l	pro_sup_l	wrist_flex_l	wrist_dev_l
1760624582.41768503	     13.85143574	     -3.79869512	     -0.13640326	      0.17886696	      0.86392237	     -0.00697890	     80.00000000	     -7.00000000	      0.00000000	     80.00000000	      1.39626340	      0.00000000	      0.00000000	      0.00000000	     80.00000000	     -7.00000000	      0.00000000	     80.00000000	      1.39626340	      0.00000000	      0.00000000	      0.00000000	    -20.57769408	     -7.49205264	     33.40784897	    -60.23194133	    -44.45866581	    -42.26143048	      0.00000000	     33.92791325	    -70.00000021	    -24.99999983	     24.54513696	      3.74573516	    -66.89208761	      0.29302558	    179.99984796	    -70.00000021	     30.75923504
1760624582.42768502	     13.86721882	     -3.87595662	     -0.39974113	      0.17949341	      0.86443417	     -0.00625492	     80.00000000	     -7.00000000	      0.00000000	     80.00000000	      1.39626340	      0.00000000	      0.00000000	      0.00000000	     80.00000000	     -7.00000000	      0.00000000	     80.00000000	      1.39626340	      0.00000000	      0.00000000	      0.00000000	    -20.45760921	     -7.48866161	     33.37425307	    -58.93792514	    -44.65858296	    -41.79838641	      0.00000000	     33.97900241	    -70.00000021	    -24.99999983	     24.30542595	      3.60923107	    -66.91903924	      0.41835251	    179.99984796	    -70.00000021	     30.76068101
1760624582.43768501	     14.08483579	      2.80072984	      2.09299741	      0.18815267	      0.85732057	      0.01160496	     80.00000000	     -7.00000000	      0.00000000	     80.00000000	      1.39626340	      0.00000000	      0.00000000	      0.00000000	     80.00000000	     -7.00000000	      0.00000000	     80.00000000	      1.39626340	      0.00000000	      0.00000000	      0.00000000	    -24.20141553	    -19.05368563	    -20.32673495	     42.98072865	    -50.05431230	     55.25766087	      0.00000000	      1.94215776	    -70.00000021	    -24.99999983	    -23.79785309	     12.05583940	    -63.14654652	     85.91123930	    179.99984796	     69.32965174	     35.00000010
1760624582.44768500	     14.09728871	      2.76102715	      2.01457025	      0.18792720	      0.85759701	      0.01200166	     80.00000000	     -7.00000000	      0.00000000	     80.00000000	      1.39626340	      0.00000000	      0.00000000	      0.00000000	     80.00000000	     -7.00000000	      0.00000000	     80.00000000	      1.39626340	      0.00000000	      0.00000000	      0.00000000	    -24.19810320	    -18.95981537	    -20.34295354	     42.51242136	    -49.36357014	     55.18998955	      0.00000000	      1.89328099	    -70.00000021	    -24.99999983	    -23.81877924	     11.98637000	    -63.12365167	     85.74845671	    179.99984796	     69.32802656	     35.00000010
1760624582.45768499	     14.10759513	      2.73158732	      1.97932030	      0.18785573	      0.85788721	      0.01233582	     80.00000000	     -7.00000000	      0.00000000	     80.00000000	      1.39626340	      0.00000000	      0.00000000	      0.00000000	     80.00000000	     -7.00000000	      0.00000000	     80.00000000	      1.39626340	      0.00000000	      0.00000000	      0.00000000	    -24.19178696	    -18.86741316	    -20.37300874	     41.96462462	    -48.67993016	     55.10466858	      0.00000000	      1.83394669	    -70.00000021	    -24.99999983	    -23.86196034	     11.89946558	    -63.08470640	     85.55044733	    179.99984796	     69.32546388	     35.00000010
